<svg width="14" height="14" viewBox="0 0 14 14" fill="#000" xmlns="http://www.w3.org/2000/svg">
<path d="M6.58002 0.850098C6.83002 0.850098 7.08002 0.850098 7.33002 0.850098C7.36002 0.860098 7.39005 0.870056 7.43005 0.870056C7.98005 0.910056 8.52005 1.02007 9.05005 1.20007C11.85 2.15007 13.67 4.9801 13.36 7.9201C13.25 8.9601 12.92 9.94006 12.33 10.8101C11.09 12.6301 9.36003 13.6001 7.16003 13.7001C6.00003 13.7501 4.90006 13.4801 3.87006 12.9101C3.79006 12.8701 3.72001 12.8601 3.64001 12.8901C2.84001 13.1501 2.04005 13.4001 1.24005 13.6601C1.04005 13.7301 0.850002 13.7201 0.690002 13.5601C0.620002 13.4901 0.580029 13.39 0.530029 13.3C0.530029 13.23 0.530029 13.1701 0.530029 13.1001C0.540029 13.0901 0.540049 13.0901 0.550049 13.0801C0.810049 12.2501 1.08004 11.4301 1.35004 10.6001C1.38004 10.5101 1.38002 10.4401 1.33002 10.3501C0.980017 9.7201 0.740005 9.04007 0.630005 8.32007C0.600005 8.10007 0.570039 7.8801 0.540039 7.6601C0.540039 7.40009 0.540039 7.14007 0.540039 6.88007C0.550039 6.84007 0.559998 6.81008 0.559998 6.77008C0.619998 5.87008 0.860039 5.02005 1.29004 4.24005C2.29004 2.43005 3.81003 1.32005 5.84003 0.930054C6.08003 0.900054 6.33002 0.880098 6.58002 0.850098ZM1.81 12.4201C1.87 12.4001 1.91 12.3901 1.94 12.3801C2.42 12.2301 2.91 12.0901 3.38 11.9101C3.73 11.7801 4.00001 11.8301 4.32001 12.0101C5.49001 12.6701 6.74005 12.8601 8.05005 12.5901C9.42005 12.3001 10.52 11.5801 11.34 10.4401C12.2 9.25006 12.52 7.92009 12.3 6.47009C12.08 4.99009 11.34 3.8001 10.14 2.9101C8.95001 2.0301 7.61002 1.7001 6.15002 1.9101C4.67002 2.1301 3.48003 2.85005 2.59003 4.05005C1.62003 5.35005 1.32001 6.81009 1.64001 8.40009C1.76001 9.00009 1.99 9.57009 2.31 10.0901C2.42 10.2701 2.44006 10.4501 2.37006 10.6401C2.33006 10.7501 2.29001 10.8701 2.26001 10.9901C2.12001 11.4601 1.97 11.9301 1.81 12.4201Z" fill="#000"/>
<path d="M5.07007 7.27014C5.07007 7.61014 4.79006 7.90015 4.44006 7.90015C4.10006 7.90015 3.82007 7.62015 3.82007 7.28015C3.82007 6.94015 4.10007 6.65015 4.45007 6.65015C4.79007 6.65015 5.07007 6.93014 5.07007 7.27014Z" fill="#000"/>
<path d="M6.95007 6.65015C7.29007 6.65015 7.58008 6.93015 7.58008 7.28015C7.58008 7.62015 7.30008 7.90016 6.96008 7.91016C6.62008 7.91016 6.33008 7.63015 6.33008 7.28015C6.33008 6.93015 6.61007 6.65015 6.95007 6.65015Z" fill="#000"/>
<path d="M9.47009 7.90015C9.13009 7.90015 8.84009 7.62014 8.84009 7.27014C8.84009 6.93014 9.12008 6.65015 9.46008 6.65015C9.80008 6.65015 10.0901 6.93015 10.0901 7.28015C10.0901 7.62015 9.81009 7.90015 9.47009 7.90015Z" fill="#000"/>
</svg>
