<svg width="12" height="14" viewBox="0 0 12 14" fill="#000" xmlns="http://www.w3.org/2000/svg">
<path d="M2.08999 13.7001C2.02999 13.6901 1.97998 13.6701 1.91998 13.6601C0.959976 13.4601 0.29998 12.6701 0.29998 11.6601C0.28998 8.7401 0.28998 5.81008 0.29998 2.89008C0.29998 1.88008 0.959976 1.08008 1.91998 0.890076C2.05998 0.860076 2.19999 0.850098 2.33999 0.850098C4.36999 0.850098 6.41 0.850098 8.43999 0.850098C9.41999 0.850098 10.2 1.46011 10.43 2.4201C10.47 2.5801 10.48 2.75011 10.48 2.9201C10.48 3.9101 10.48 4.89007 10.48 5.88007C10.48 6.18007 10.35 6.37005 10.11 6.43005C9.81998 6.51005 9.52998 6.32008 9.48998 6.02008C9.47998 5.95008 9.48 5.89007 9.48 5.82007C9.48 4.86007 9.48 3.90005 9.48 2.93005C9.48 2.49005 9.31 2.15008 8.91 1.96008C8.77 1.89008 8.59999 1.8501 8.43999 1.8501C6.39999 1.8401 4.36998 1.8401 2.32998 1.8501C1.74998 1.8501 1.33998 2.25007 1.29998 2.82007C1.29998 2.87007 1.29998 2.91008 1.29998 2.96008C1.29998 5.84008 1.29998 8.7201 1.29998 11.6001C1.29998 12.0501 1.45999 12.4001 1.86999 12.5901C2.01999 12.6601 2.19999 12.6901 2.36999 12.7001C2.90999 12.7101 3.44 12.7001 3.98 12.7101C4.19 12.7101 4.35 12.8001 4.44 13.0001C4.53 13.1801 4.51 13.3701 4.38 13.5201C4.31 13.6001 4.2 13.6501 4.1 13.7201C3.43 13.7001 2.75999 13.7001 2.08999 13.7001Z" fill="#000"/>
<path d="M6.12996 13.7C6.11996 13.69 6.09995 13.6801 6.08995 13.6701C5.80995 13.5601 5.67994 13.3201 5.76994 13.0401C5.95994 12.3901 6.15995 11.74 6.36995 11.09C6.39995 11 6.46996 10.9 6.53996 10.83C7.43996 9.93003 8.33994 9.03002 9.23994 8.13002C9.66994 7.70002 10.1899 7.56002 10.7699 7.75002C11.3399 7.93002 11.6899 8.33006 11.7999 8.92006C11.8799 9.38006 11.77 9.79004 11.47 10.15C11.41 10.23 11.33 10.3 11.26 10.37C10.41 11.22 9.55994 12.0701 8.70994 12.9201C8.58994 13.0401 8.45994 13.11 8.29994 13.15C7.63994 13.33 6.98994 13.52 6.32994 13.7C6.26994 13.7 6.19996 13.7 6.12996 13.7ZM9.11995 9.62001C9.09995 9.65001 9.07994 9.70006 9.04994 9.73006C8.66994 10.1101 8.28996 10.49 7.90996 10.87C7.69996 11.08 7.44994 11.26 7.29994 11.51C7.14994 11.76 7.10994 12.08 7.01994 12.36C7.00994 12.39 7.00995 12.42 6.99995 12.46C7.30995 12.37 7.59994 12.3 7.88994 12.21C7.95994 12.19 8.02994 12.1501 8.07994 12.1001C8.63994 11.5401 9.19996 10.98 9.75996 10.43C9.78996 10.4 9.80994 10.3701 9.82994 10.3501C9.60994 10.1101 9.37995 9.88001 9.11995 9.62001ZM9.89995 8.90004C10.1399 9.14004 10.3699 9.37 10.6099 9.61C10.8999 9.38 10.8599 9.02004 10.6699 8.84004C10.4399 8.61004 10.1199 8.64004 9.89995 8.90004Z" fill="#000"/>
<path d="M5.38992 4.87012C4.53992 4.87012 3.68993 4.87012 2.83993 4.87012C2.49993 4.87012 2.26993 4.62011 2.30993 4.30011C2.33993 4.07011 2.51993 3.90012 2.74993 3.87012C2.76993 3.87012 2.78993 3.87012 2.80993 3.87012C4.52993 3.87012 6.23993 3.87012 7.95993 3.87012C8.26993 3.87012 8.48994 4.10015 8.46994 4.40015C8.45994 4.67015 8.23993 4.87013 7.95993 4.88013C7.57993 4.88013 7.19994 4.88013 6.81994 4.88013C6.33994 4.87013 5.85992 4.87012 5.38992 4.87012Z" fill="#000"/>
<path d="M5.37999 6.87012C4.52999 6.87012 3.67997 6.87012 2.82997 6.87012C2.48997 6.87012 2.26998 6.62016 2.30998 6.29016C2.33998 6.06016 2.51999 5.89012 2.75999 5.87012C2.80999 5.87012 2.84998 5.87012 2.89998 5.87012C4.55998 5.87012 6.22997 5.87012 7.88997 5.87012C7.94997 5.87012 8.00999 5.87013 8.06999 5.88013C8.32999 5.93013 8.49999 6.15017 8.47999 6.42017C8.45999 6.67017 8.25998 6.87013 7.99998 6.88013C7.76998 6.89013 7.54999 6.88013 7.31999 6.88013C6.66999 6.87013 6.02999 6.87012 5.37999 6.87012Z" fill="#000"/>
<path d="M4.38006 7.88013C4.90006 7.88013 5.42005 7.88013 5.93005 7.88013C6.26005 7.88013 6.49006 8.15015 6.44006 8.47015C6.40006 8.71015 6.19004 8.88014 5.92004 8.89014C5.41004 8.89014 4.91005 8.89014 4.40005 8.89014C3.87005 8.89014 3.35006 8.89014 2.82006 8.89014C2.49006 8.89014 2.26005 8.62011 2.31005 8.30011C2.35005 8.06011 2.56004 7.89014 2.83004 7.89014C3.35004 7.88014 3.86006 7.88013 4.38006 7.88013Z" fill="#000"/>
</svg>
