<svg width="15" height="14" viewBox="0 0 15 14" fill="#000" xmlns="http://www.w3.org/2000/svg">
<path d="M6.86002 0C7.13002 0 7.41002 0 7.68002 0C7.72002 0.01 7.76002 0.0200043 7.80002 0.0200043C8.18002 0.0800043 8.57003 0.109997 8.94003 0.199997C12.53 1.06 14.85 4.66999 14.14 8.29999C13.85 9.80999 13.14 11.1 12.01 12.13C10.39 13.61 8.47002 14.19 6.30002 13.92C4.92002 13.74 3.70003 13.18 2.66003 12.25C1.43003 11.16 0.660035 9.81 0.380035 8.19C0.330035 7.93 0.31002 7.65999 0.27002 7.39999C0.27002 7.12999 0.27002 6.84999 0.27002 6.57999C0.28002 6.52999 0.290039 6.48 0.290039 6.44C0.320039 6.19 0.340015 5.92999 0.390015 5.67999C0.660015 4.28999 1.29004 3.07999 2.29004 2.06999C3.34004 1.00999 4.59003 0.350006 6.06003 0.100006C6.33003 0.0600061 6.60002 0.03 6.86002 0ZM5.61002 7.67999C3.84002 6.40999 4.12002 4.17 5.21002 3.14C6.40002 2.01 8.23003 2.03 9.37003 3.17C10.49 4.28 10.64 6.47 8.94003 7.69C9.69003 7.98 10.33 8.40999 10.85 8.98999C11.38 9.57999 11.73 10.26 11.94 11.03C14.02 8.65 14.04 4.81999 11.43 2.42999C8.84002 0.0599928 4.86003 0.320004 2.56003 3.02C0.340028 5.63 0.890016 9.13001 2.61002 11.01C3.06002 9.41001 4.07002 8.30999 5.61002 7.67999ZM7.39001 13.18C7.54001 13.17 7.80003 13.16 8.06003 13.12C9.11003 12.99 10.06 12.61 10.92 11.98C11.27 11.73 11.26 11.72 11.16 11.29C10.66 9.23001 8.70002 7.91999 6.61002 8.26999C4.91002 8.54999 3.56003 9.94999 3.34003 11.65C3.33003 11.69 3.36002 11.75 3.40002 11.78C4.52002 12.7 5.82001 13.16 7.39001 13.18ZM7.27002 7.35999C8.43002 7.36999 9.39002 6.42 9.40002 5.25C9.41002 4.09 8.45003 3.12 7.28003 3.11C6.11003 3.11 5.15002 4.06999 5.15002 5.23999C5.15002 6.40999 6.10002 7.35999 7.27002 7.35999Z" fill="#000"/>
</svg>
